<svg id="svg" version="1.1" width="512" height="512" xmlns="http://www.w3.org/2000/svg" xmlns:xlink="http://www.w3.org/1999/xlink" ><g id="svgg"><path id="path0" d="M188.412 0.581 L 195.183 0.840 193.291 2.882 C 190.037 6.393,189.715 9.197,189.986 31.641 C 190.291 56.953,191.413 60.156,199.974 60.156 C 209.357 60.156,210.156 57.718,210.156 29.114 L 210.156 5.729 207.292 2.865 L 204.427 0.000 193.034 0.161 C 185.242 0.271,183.781 0.403,188.412 0.581 M24.857 61.498 C 20.453 64.230,20.703 55.862,20.703 200.569 L 20.703 334.495 23.621 337.169 C 28.661 341.788,30.248 341.308,91.016 316.829 C 132.829 299.985,137.354 297.932,139.145 294.996 C 141.241 291.558,141.479 109.386,139.392 105.351 C 137.747 102.169,133.215 100.101,89.318 82.504 C 30.785 59.039,29.497 58.620,24.857 61.498 M361.328 62.835 C 318.224 78.759,263.237 101.931,261.551 104.882 C 260.033 107.541,260.078 292.536,261.598 295.205 C 263.104 297.850,270.977 301.314,321.159 321.406 C 367.729 340.052,371.314 341.186,375.624 338.641 C 380.366 335.839,380.059 344.973,380.291 199.730 L 380.503 66.257 377.453 63.207 C 373.575 59.328,370.983 59.269,361.328 62.835 M360.073 199.694 L 360.158 314.232 358.399 313.776 C 357.432 313.525,339.590 306.491,318.750 298.144 L 280.859 282.967 280.640 211.601 C 280.519 172.349,280.641 134.961,280.910 128.516 L 281.399 116.797 320.582 101.050 C 342.133 92.388,359.816 85.269,359.877 85.229 C 359.938 85.189,360.026 136.698,360.073 199.694 M82.031 101.856 L 119.922 117.033 120.080 193.087 C 120.166 234.916,119.991 272.300,119.689 276.162 L 119.141 283.184 79.883 298.960 L 40.625 314.736 40.625 200.252 L 40.625 85.768 42.383 86.224 C 43.350 86.475,61.191 93.509,82.031 101.856 M195.194 101.188 C 188.312 104.926,187.348 132.384,193.905 137.902 C 197.620 141.027,202.992 140.666,207.029 137.018 L 210.156 134.193 210.156 119.922 L 210.156 105.651 207.029 102.825 C 203.531 99.665,199.121 99.055,195.194 101.188 M195.313 181.392 C 190.600 184.567,189.846 187.133,189.846 200.000 C 189.846 214.720,192.684 220.313,200.154 220.313 C 208.351 220.313,210.156 216.625,210.156 199.883 L 210.156 185.915 207.590 183.115 C 204.134 179.344,199.349 178.672,195.313 181.392 M193.721 262.305 C 187.256 268.098,188.350 294.591,195.221 298.650 C 199.148 300.969,203.419 300.436,207.029 297.175 L 210.156 294.349 210.156 280.819 C 210.156 273.378,209.813 266.388,209.394 265.286 C 207.433 260.127,198.127 258.357,193.721 262.305 M194.965 341.371 C 190.431 344.359,190.258 345.299,189.983 368.359 C 189.707 391.483,190.011 393.798,193.829 397.615 L 196.214 400.000 208.068 399.838 C 216.628 399.721,217.896 399.604,212.632 399.417 L 205.342 399.158 207.780 396.665 L 210.218 394.172 209.992 369.681 L 209.766 345.191 206.847 342.517 C 203.359 339.321,198.749 338.876,194.965 341.371 " stroke="none" fill="#000000" fill-rule="evenodd"></path></g></svg>